<svg xmlns="http://www.w3.org/2000/svg" xmlns:xlink="http://www.w3.org/1999/xlink" width="500" zoomAndPan="magnify" viewBox="0 0 375 374.999991" height="500" preserveAspectRatio="xMidYMid meet" version="1.0"><defs><g/></defs><g fill="#ffaa04" fill-opacity="0.302"><g transform="translate(29.826818, 189.271687)"><g><path d="M 67.640625 -56.234375 C 70.734375 -56.234375 72.28125 -54.96875 72.28125 -52.4375 C 72.28125 -51.644531 72.109375 -50.660156 71.765625 -49.484375 L 69.75 -42.640625 C 69.125 -40.554688 68.359375 -39.09375 67.453125 -38.25 C 66.554688 -37.40625 65.265625 -36.984375 63.578125 -36.984375 C 62.171875 -36.984375 61.085938 -37.347656 60.328125 -38.078125 C 59.566406 -38.804688 58.847656 -39.960938 58.171875 -41.546875 L 56.734375 -45 C 56.285156 -46.070312 55.804688 -46.804688 55.296875 -47.203125 C 54.796875 -47.597656 54.007812 -47.796875 52.9375 -47.796875 L 51 -47.796875 L 40.28125 -10.046875 C 40.101562 -9.316406 40.015625 -8.671875 40.015625 -8.109375 C 40.015625 -7.429688 40.113281 -6.863281 40.3125 -6.40625 C 40.507812 -5.957031 40.804688 -5.484375 41.203125 -4.984375 C 41.710938 -4.191406 41.96875 -3.546875 41.96875 -3.046875 C 41.96875 -2.929688 41.910156 -2.648438 41.796875 -2.203125 C 41.515625 -1.460938 40.960938 -0.921875 40.140625 -0.578125 C 39.328125 -0.242188 38.160156 -0.078125 36.640625 -0.078125 L 16.796875 -0.078125 C 15.617188 -0.078125 14.707031 -0.273438 14.0625 -0.671875 C 13.414062 -1.066406 13.09375 -1.628906 13.09375 -2.359375 C 13.09375 -2.703125 13.175781 -3.039062 13.34375 -3.375 C 13.5625 -3.882812 13.828125 -4.265625 14.140625 -4.515625 C 14.453125 -4.765625 14.914062 -5.085938 15.53125 -5.484375 C 16.375 -5.992188 17.078125 -6.554688 17.640625 -7.171875 C 18.203125 -7.796875 18.679688 -8.753906 19.078125 -10.046875 L 29.71875 -47.796875 L 27.78125 -47.796875 C 26.539062 -47.796875 25.523438 -47.597656 24.734375 -47.203125 C 23.953125 -46.804688 23.109375 -46.070312 22.203125 -45 L 19.421875 -41.546875 C 18.128906 -40.023438 16.875 -38.882812 15.65625 -38.125 C 14.445312 -37.363281 13.140625 -36.984375 11.734375 -36.984375 C 10.441406 -36.984375 9.425781 -37.320312 8.6875 -38 C 7.957031 -38.675781 7.59375 -39.601562 7.59375 -40.78125 C 7.59375 -41.34375 7.679688 -41.960938 7.859375 -42.640625 L 10.046875 -50.328125 C 10.492188 -51.898438 11 -53.09375 11.5625 -53.90625 C 12.125 -54.726562 12.925781 -55.320312 13.96875 -55.6875 C 15.007812 -56.050781 16.488281 -56.234375 18.40625 -56.234375 Z M 67.640625 -56.234375 "/></g></g></g><g fill="#ffaa04" fill-opacity="0.302"><g transform="translate(93.911931, 189.271687)"><g><path d="M 41.453125 -44.671875 C 44.609375 -44.671875 47.128906 -43.710938 49.015625 -41.796875 C 50.898438 -39.878906 51.84375 -37.515625 51.84375 -34.703125 C 51.84375 -33.628906 51.726562 -32.644531 51.5 -31.75 C 50.9375 -29.4375 49.867188 -27.660156 48.296875 -26.421875 C 46.722656 -25.191406 44.835938 -24.578125 42.640625 -24.578125 C 40.503906 -24.578125 38.882812 -25.082031 37.78125 -26.09375 C 36.6875 -27.101562 35.71875 -28.453125 34.875 -30.140625 C 34.425781 -31.097656 34.003906 -31.800781 33.609375 -32.25 C 33.210938 -32.707031 32.757812 -32.9375 32.25 -32.9375 C 31.6875 -32.9375 31.191406 -32.707031 30.765625 -32.25 C 30.347656 -31.800781 29.972656 -31.015625 29.640625 -29.890625 L 23.140625 -8.78125 C 23.023438 -8.5 22.96875 -8.078125 22.96875 -7.515625 C 22.96875 -6.785156 23.175781 -6.179688 23.59375 -5.703125 C 24.019531 -5.222656 24.597656 -4.757812 25.328125 -4.3125 C 26.003906 -3.851562 26.453125 -3.484375 26.671875 -3.203125 C 26.898438 -2.921875 26.988281 -2.554688 26.9375 -2.109375 C 26.820312 -1.378906 26.410156 -0.84375 25.703125 -0.5 C 25.003906 -0.164062 23.8125 0 22.125 0 L 0.5 0 C -0.957031 0 -2.007812 -0.238281 -2.65625 -0.71875 C -3.300781 -1.195312 -3.539062 -1.832031 -3.375 -2.625 C -3.15625 -3.289062 -2.566406 -3.878906 -1.609375 -4.390625 C -0.765625 -4.835938 -0.0625 -5.367188 0.5 -5.984375 C 1.0625 -6.609375 1.539062 -7.597656 1.9375 -8.953125 L 9.453125 -33.359375 C 9.566406 -33.640625 9.625 -34.03125 9.625 -34.53125 C 9.625 -35.15625 9.492188 -35.632812 9.234375 -35.96875 C 8.984375 -36.3125 8.578125 -36.734375 8.015625 -37.234375 C 7.453125 -37.679688 7.054688 -38.070312 6.828125 -38.40625 C 6.609375 -38.75 6.582031 -39.203125 6.75 -39.765625 C 7.09375 -41.066406 8.867188 -42.207031 12.078125 -43.1875 C 15.285156 -44.175781 18.632812 -44.671875 22.125 -44.671875 C 24.425781 -44.671875 26.335938 -44.148438 27.859375 -43.109375 C 29.378906 -42.066406 30.363281 -40.585938 30.8125 -38.671875 C 33.519531 -42.671875 37.066406 -44.671875 41.453125 -44.671875 Z M 41.453125 -44.671875 "/></g></g></g><g fill="#ffaa04" fill-opacity="0.302"><g transform="translate(142.798994, 189.271687)"><g><path d="M 28.625 -45.09375 C 35.769531 -45.09375 40.945312 -43.953125 44.15625 -41.671875 C 47.363281 -39.390625 48.96875 -36.476562 48.96875 -32.9375 C 48.96875 -31.863281 48.859375 -30.875 48.640625 -29.96875 C 47.796875 -26.257812 45.441406 -23.601562 41.578125 -22 C 37.722656 -20.394531 33.179688 -19.59375 27.953125 -19.59375 C 25.304688 -19.59375 22.828125 -19.757812 20.515625 -20.09375 C 20.460938 -17.164062 21.25 -15.109375 22.875 -13.921875 C 24.507812 -12.742188 26.789062 -12.15625 29.71875 -12.15625 C 31.070312 -12.15625 32.367188 -12.3125 33.609375 -12.625 C 34.847656 -12.9375 36.421875 -13.398438 38.328125 -14.015625 C 39.910156 -14.578125 40.984375 -14.859375 41.546875 -14.859375 C 42.160156 -14.859375 42.46875 -14.492188 42.46875 -13.765625 C 42.53125 -11.796875 41.800781 -9.726562 40.28125 -7.5625 C 38.757812 -5.394531 36.503906 -3.550781 33.515625 -2.03125 C 30.535156 -0.507812 26.9375 0.25 22.71875 0.25 C 16.46875 0.25 11.34375 -1.320312 7.34375 -4.46875 C 3.34375 -7.625 1.34375 -12.210938 1.34375 -18.234375 C 1.34375 -19.921875 1.570312 -21.894531 2.03125 -24.15625 C 3.4375 -31.070312 6.515625 -36.289062 11.265625 -39.8125 C 16.023438 -43.332031 21.8125 -45.09375 28.625 -45.09375 Z M 21.109375 -25.15625 C 21.335938 -25.101562 21.644531 -25.078125 22.03125 -25.078125 C 24.394531 -25.078125 26.195312 -26.175781 27.4375 -28.375 C 28.675781 -30.570312 29.269531 -33.019531 29.21875 -35.71875 C 29.15625 -37.289062 28.703125 -38.078125 27.859375 -38.078125 C 27.242188 -38.078125 26.515625 -37.582031 25.671875 -36.59375 C 24.828125 -35.613281 23.992188 -34.140625 23.171875 -32.171875 C 22.359375 -30.203125 21.671875 -27.863281 21.109375 -25.15625 Z M 21.109375 -25.15625 "/></g></g></g><g fill="#ffaa04" fill-opacity="0.302"><g transform="translate(190.081812, 189.271687)"><g><path d="M 41.203125 -44.671875 C 44.191406 -44.671875 46.671875 -43.597656 48.640625 -41.453125 C 50.609375 -39.316406 51.59375 -36.390625 51.59375 -32.671875 C 51.59375 -27.660156 49.847656 -22.535156 46.359375 -17.296875 C 42.867188 -12.066406 38.445312 -7.75 33.09375 -4.34375 C 27.75 -0.9375 22.546875 0.765625 17.484375 0.765625 C 12.640625 0.765625 8.710938 -0.21875 5.703125 -2.1875 C 2.691406 -4.164062 1.1875 -6.984375 1.1875 -10.640625 C 1.1875 -11.992188 1.4375 -13.515625 1.9375 -15.203125 L 7.265625 -33.359375 C 7.378906 -33.804688 7.4375 -34.140625 7.4375 -34.359375 C 7.4375 -34.921875 7.296875 -35.398438 7.015625 -35.796875 C 6.734375 -36.191406 6.335938 -36.613281 5.828125 -37.0625 C 4.984375 -37.800781 4.5625 -38.453125 4.5625 -39.015625 C 4.5 -39.796875 4.972656 -40.632812 5.984375 -41.53125 C 7.003906 -42.4375 8.425781 -43.1875 10.25 -43.78125 C 12.082031 -44.375 14.15625 -44.671875 16.46875 -44.671875 C 20.238281 -44.671875 23.175781 -43.753906 25.28125 -41.921875 C 27.394531 -40.085938 28.453125 -37.707031 28.453125 -34.78125 C 28.453125 -33.488281 28.226562 -32.082031 27.78125 -30.5625 L 22.296875 -12.5 C 22.117188 -11.988281 22.03125 -11.566406 22.03125 -11.234375 C 22.03125 -10.492188 22.285156 -9.925781 22.796875 -9.53125 C 23.304688 -9.144531 24.007812 -8.953125 24.90625 -8.953125 C 26.144531 -8.953125 27.59375 -9.5 29.25 -10.59375 C 30.914062 -11.695312 32.5625 -13.273438 34.1875 -15.328125 C 35.820312 -17.378906 37.148438 -19.8125 38.171875 -22.625 C 35.910156 -24.59375 34.316406 -26.535156 33.390625 -28.453125 C 32.460938 -30.367188 32 -32.335938 32 -34.359375 C 32 -37.234375 32.785156 -39.671875 34.359375 -41.671875 C 35.941406 -43.671875 38.222656 -44.671875 41.203125 -44.671875 Z M 41.203125 -44.671875 "/></g></g></g><g fill="#ffaa04" fill-opacity="0.302"><g transform="translate(240.657553, 189.271687)"><g><path d="M 32.671875 -44.671875 C 40.328125 -44.671875 45.96875 -43.117188 49.59375 -40.015625 C 53.226562 -36.921875 55.046875 -32.867188 55.046875 -27.859375 C 55.046875 -26.171875 54.820312 -24.285156 54.375 -22.203125 C 53.3125 -17.585938 51.3125 -13.546875 48.375 -10.078125 C 45.445312 -6.617188 41.859375 -3.945312 37.609375 -2.0625 C 33.359375 -0.175781 28.757812 0.765625 23.8125 0.765625 C 15.988281 0.765625 10.203125 -0.796875 6.453125 -3.921875 C 2.710938 -7.046875 0.84375 -11.195312 0.84375 -16.375 C 0.84375 -18.125 1.066406 -20.066406 1.515625 -22.203125 C 2.585938 -26.597656 4.628906 -30.5 7.640625 -33.90625 C 10.648438 -37.3125 14.335938 -39.957031 18.703125 -41.84375 C 23.066406 -43.726562 27.722656 -44.671875 32.671875 -44.671875 Z M 32.421875 -37.15625 C 31.242188 -37.15625 29.992188 -36.097656 28.671875 -33.984375 C 27.347656 -31.867188 25.785156 -27.882812 23.984375 -22.03125 C 22.179688 -16.175781 21.28125 -12.066406 21.28125 -9.703125 C 21.28125 -8.472656 21.472656 -7.644531 21.859375 -7.21875 C 22.253906 -6.800781 22.789062 -6.59375 23.46875 -6.59375 C 24.65625 -6.476562 25.878906 -7.488281 27.140625 -9.625 C 28.410156 -11.757812 30.003906 -15.925781 31.921875 -22.125 C 33.660156 -27.582031 34.53125 -31.550781 34.53125 -34.03125 C 34.53125 -35.207031 34.347656 -36.019531 33.984375 -36.46875 C 33.617188 -36.925781 33.097656 -37.15625 32.421875 -37.15625 Z M 32.421875 -37.15625 "/></g></g></g><g fill="#ffaa04" fill-opacity="0.302"><g transform="translate(296.045993, 189.271687)"><g><path d="M 52.265625 -11.65625 C 52.148438 -11.425781 52.09375 -11.085938 52.09375 -10.640625 C 52.09375 -10.242188 52.191406 -9.929688 52.390625 -9.703125 C 52.585938 -9.484375 52.859375 -9.375 53.203125 -9.375 C 53.867188 -9.375 54.441406 -9.664062 54.921875 -10.25 C 55.398438 -10.84375 55.722656 -11.140625 55.890625 -11.140625 C 56.171875 -11.140625 56.394531 -10.957031 56.5625 -10.59375 C 56.738281 -10.226562 56.828125 -9.789062 56.828125 -9.28125 C 56.878906 -7.65625 56.34375 -6.066406 55.21875 -4.515625 C 54.09375 -2.972656 52.445312 -1.707031 50.28125 -0.71875 C 48.113281 0.269531 45.507812 0.765625 42.46875 0.765625 C 38.757812 0.765625 35.804688 -0.09375 33.609375 -1.8125 C 31.410156 -3.53125 30.285156 -5.828125 30.234375 -8.703125 C 30.234375 -10.785156 30.738281 -13.117188 31.75 -15.703125 L 36.390625 -27.859375 C 36.671875 -28.597656 36.8125 -29.191406 36.8125 -29.640625 C 36.8125 -30.367188 36.570312 -30.941406 36.09375 -31.359375 C 35.613281 -31.785156 35.035156 -32 34.359375 -32 C 33.128906 -32 31.945312 -31.421875 30.8125 -30.265625 C 29.6875 -29.117188 28.875 -27.695312 28.375 -26 L 23.140625 -8.78125 C 22.910156 -8.164062 22.796875 -7.578125 22.796875 -7.015625 C 22.796875 -6.335938 22.9375 -5.785156 23.21875 -5.359375 C 23.5 -4.941406 23.894531 -4.503906 24.40625 -4.046875 C 24.800781 -3.710938 25.082031 -3.40625 25.25 -3.125 C 25.414062 -2.84375 25.441406 -2.503906 25.328125 -2.109375 C 25.109375 -1.378906 24.570312 -0.84375 23.71875 -0.5 C 22.875 -0.164062 21.554688 0 19.765625 0 L 0.5 0 C -0.957031 0 -2.007812 -0.238281 -2.65625 -0.71875 C -3.300781 -1.195312 -3.539062 -1.832031 -3.375 -2.625 C -3.15625 -3.289062 -2.566406 -3.878906 -1.609375 -4.390625 C -0.765625 -4.835938 -0.0625 -5.367188 0.5 -5.984375 C 1.0625 -6.609375 1.539062 -7.597656 1.9375 -8.953125 L 9.453125 -33.359375 C 9.566406 -33.640625 9.625 -34.03125 9.625 -34.53125 C 9.625 -35.15625 9.492188 -35.632812 9.234375 -35.96875 C 8.984375 -36.3125 8.578125 -36.734375 8.015625 -37.234375 C 7.453125 -37.679688 7.054688 -38.070312 6.828125 -38.40625 C 6.609375 -38.75 6.582031 -39.203125 6.75 -39.765625 C 7.09375 -41.066406 8.867188 -42.207031 12.078125 -43.1875 C 15.285156 -44.175781 18.632812 -44.671875 22.125 -44.671875 C 24.9375 -44.671875 27.15625 -43.894531 28.78125 -42.34375 C 30.414062 -40.789062 31.148438 -38.640625 30.984375 -35.890625 C 33.296875 -39.210938 35.742188 -41.503906 38.328125 -42.765625 C 40.921875 -44.035156 43.738281 -44.671875 46.78125 -44.671875 C 50.207031 -44.671875 52.976562 -43.628906 55.09375 -41.546875 C 57.207031 -39.460938 58.265625 -36.757812 58.265625 -33.4375 C 58.265625 -31.6875 57.984375 -29.96875 57.421875 -28.28125 Z M 52.265625 -11.65625 "/></g></g></g><g fill="#ffaa04" fill-opacity="0.502"><g transform="translate(26.994217, 187.432173)"><g><path d="M 67.640625 -56.234375 C 70.734375 -56.234375 72.28125 -54.96875 72.28125 -52.4375 C 72.28125 -51.644531 72.109375 -50.660156 71.765625 -49.484375 L 69.75 -42.640625 C 69.125 -40.554688 68.359375 -39.09375 67.453125 -38.25 C 66.554688 -37.40625 65.265625 -36.984375 63.578125 -36.984375 C 62.171875 -36.984375 61.085938 -37.347656 60.328125 -38.078125 C 59.566406 -38.804688 58.847656 -39.960938 58.171875 -41.546875 L 56.734375 -45 C 56.285156 -46.070312 55.804688 -46.804688 55.296875 -47.203125 C 54.796875 -47.597656 54.007812 -47.796875 52.9375 -47.796875 L 51 -47.796875 L 40.28125 -10.046875 C 40.101562 -9.316406 40.015625 -8.671875 40.015625 -8.109375 C 40.015625 -7.429688 40.113281 -6.863281 40.3125 -6.40625 C 40.507812 -5.957031 40.804688 -5.484375 41.203125 -4.984375 C 41.710938 -4.191406 41.96875 -3.546875 41.96875 -3.046875 C 41.96875 -2.929688 41.910156 -2.648438 41.796875 -2.203125 C 41.515625 -1.460938 40.960938 -0.921875 40.140625 -0.578125 C 39.328125 -0.242188 38.160156 -0.078125 36.640625 -0.078125 L 16.796875 -0.078125 C 15.617188 -0.078125 14.707031 -0.273438 14.0625 -0.671875 C 13.414062 -1.066406 13.09375 -1.628906 13.09375 -2.359375 C 13.09375 -2.703125 13.175781 -3.039062 13.34375 -3.375 C 13.5625 -3.882812 13.828125 -4.265625 14.140625 -4.515625 C 14.453125 -4.765625 14.914062 -5.085938 15.53125 -5.484375 C 16.375 -5.992188 17.078125 -6.554688 17.640625 -7.171875 C 18.203125 -7.796875 18.679688 -8.753906 19.078125 -10.046875 L 29.71875 -47.796875 L 27.78125 -47.796875 C 26.539062 -47.796875 25.523438 -47.597656 24.734375 -47.203125 C 23.953125 -46.804688 23.109375 -46.070312 22.203125 -45 L 19.421875 -41.546875 C 18.128906 -40.023438 16.875 -38.882812 15.65625 -38.125 C 14.445312 -37.363281 13.140625 -36.984375 11.734375 -36.984375 C 10.441406 -36.984375 9.425781 -37.320312 8.6875 -38 C 7.957031 -38.675781 7.59375 -39.601562 7.59375 -40.78125 C 7.59375 -41.34375 7.679688 -41.960938 7.859375 -42.640625 L 10.046875 -50.328125 C 10.492188 -51.898438 11 -53.09375 11.5625 -53.90625 C 12.125 -54.726562 12.925781 -55.320312 13.96875 -55.6875 C 15.007812 -56.050781 16.488281 -56.234375 18.40625 -56.234375 Z M 67.640625 -56.234375 "/></g></g></g><g fill="#ffaa04" fill-opacity="0.502"><g transform="translate(91.07933, 187.432173)"><g><path d="M 41.453125 -44.671875 C 44.609375 -44.671875 47.128906 -43.710938 49.015625 -41.796875 C 50.898438 -39.878906 51.84375 -37.515625 51.84375 -34.703125 C 51.84375 -33.628906 51.726562 -32.644531 51.5 -31.75 C 50.9375 -29.4375 49.867188 -27.660156 48.296875 -26.421875 C 46.722656 -25.191406 44.835938 -24.578125 42.640625 -24.578125 C 40.503906 -24.578125 38.882812 -25.082031 37.78125 -26.09375 C 36.6875 -27.101562 35.71875 -28.453125 34.875 -30.140625 C 34.425781 -31.097656 34.003906 -31.800781 33.609375 -32.25 C 33.210938 -32.707031 32.757812 -32.9375 32.25 -32.9375 C 31.6875 -32.9375 31.191406 -32.707031 30.765625 -32.25 C 30.347656 -31.800781 29.972656 -31.015625 29.640625 -29.890625 L 23.140625 -8.78125 C 23.023438 -8.5 22.96875 -8.078125 22.96875 -7.515625 C 22.96875 -6.785156 23.175781 -6.179688 23.59375 -5.703125 C 24.019531 -5.222656 24.597656 -4.757812 25.328125 -4.3125 C 26.003906 -3.851562 26.453125 -3.484375 26.671875 -3.203125 C 26.898438 -2.921875 26.988281 -2.554688 26.9375 -2.109375 C 26.820312 -1.378906 26.410156 -0.84375 25.703125 -0.5 C 25.003906 -0.164062 23.8125 0 22.125 0 L 0.5 0 C -0.957031 0 -2.007812 -0.238281 -2.65625 -0.71875 C -3.300781 -1.195312 -3.539062 -1.832031 -3.375 -2.625 C -3.15625 -3.289062 -2.566406 -3.878906 -1.609375 -4.390625 C -0.765625 -4.835938 -0.0625 -5.367188 0.5 -5.984375 C 1.0625 -6.609375 1.539062 -7.597656 1.9375 -8.953125 L 9.453125 -33.359375 C 9.566406 -33.640625 9.625 -34.03125 9.625 -34.53125 C 9.625 -35.15625 9.492188 -35.632812 9.234375 -35.96875 C 8.984375 -36.3125 8.578125 -36.734375 8.015625 -37.234375 C 7.453125 -37.679688 7.054688 -38.070312 6.828125 -38.40625 C 6.609375 -38.75 6.582031 -39.203125 6.75 -39.765625 C 7.09375 -41.066406 8.867188 -42.207031 12.078125 -43.1875 C 15.285156 -44.175781 18.632812 -44.671875 22.125 -44.671875 C 24.425781 -44.671875 26.335938 -44.148438 27.859375 -43.109375 C 29.378906 -42.066406 30.363281 -40.585938 30.8125 -38.671875 C 33.519531 -42.671875 37.066406 -44.671875 41.453125 -44.671875 Z M 41.453125 -44.671875 "/></g></g></g><g fill="#ffaa04" fill-opacity="0.502"><g transform="translate(139.966393, 187.432173)"><g><path d="M 28.625 -45.09375 C 35.769531 -45.09375 40.945312 -43.953125 44.15625 -41.671875 C 47.363281 -39.390625 48.96875 -36.476562 48.96875 -32.9375 C 48.96875 -31.863281 48.859375 -30.875 48.640625 -29.96875 C 47.796875 -26.257812 45.441406 -23.601562 41.578125 -22 C 37.722656 -20.394531 33.179688 -19.59375 27.953125 -19.59375 C 25.304688 -19.59375 22.828125 -19.757812 20.515625 -20.09375 C 20.460938 -17.164062 21.25 -15.109375 22.875 -13.921875 C 24.507812 -12.742188 26.789062 -12.15625 29.71875 -12.15625 C 31.070312 -12.15625 32.367188 -12.3125 33.609375 -12.625 C 34.847656 -12.9375 36.421875 -13.398438 38.328125 -14.015625 C 39.910156 -14.578125 40.984375 -14.859375 41.546875 -14.859375 C 42.160156 -14.859375 42.46875 -14.492188 42.46875 -13.765625 C 42.53125 -11.796875 41.800781 -9.726562 40.28125 -7.5625 C 38.757812 -5.394531 36.503906 -3.550781 33.515625 -2.03125 C 30.535156 -0.507812 26.9375 0.25 22.71875 0.25 C 16.46875 0.25 11.34375 -1.320312 7.34375 -4.46875 C 3.34375 -7.625 1.34375 -12.210938 1.34375 -18.234375 C 1.34375 -19.921875 1.570312 -21.894531 2.03125 -24.15625 C 3.4375 -31.070312 6.515625 -36.289062 11.265625 -39.8125 C 16.023438 -43.332031 21.8125 -45.09375 28.625 -45.09375 Z M 21.109375 -25.15625 C 21.335938 -25.101562 21.644531 -25.078125 22.03125 -25.078125 C 24.394531 -25.078125 26.195312 -26.175781 27.4375 -28.375 C 28.675781 -30.570312 29.269531 -33.019531 29.21875 -35.71875 C 29.15625 -37.289062 28.703125 -38.078125 27.859375 -38.078125 C 27.242188 -38.078125 26.515625 -37.582031 25.671875 -36.59375 C 24.828125 -35.613281 23.992188 -34.140625 23.171875 -32.171875 C 22.359375 -30.203125 21.671875 -27.863281 21.109375 -25.15625 Z M 21.109375 -25.15625 "/></g></g></g><g fill="#ffaa04" fill-opacity="0.502"><g transform="translate(187.249211, 187.432173)"><g><path d="M 41.203125 -44.671875 C 44.191406 -44.671875 46.671875 -43.597656 48.640625 -41.453125 C 50.609375 -39.316406 51.59375 -36.390625 51.59375 -32.671875 C 51.59375 -27.660156 49.847656 -22.535156 46.359375 -17.296875 C 42.867188 -12.066406 38.445312 -7.75 33.09375 -4.34375 C 27.75 -0.9375 22.546875 0.765625 17.484375 0.765625 C 12.640625 0.765625 8.710938 -0.21875 5.703125 -2.1875 C 2.691406 -4.164062 1.1875 -6.984375 1.1875 -10.640625 C 1.1875 -11.992188 1.4375 -13.515625 1.9375 -15.203125 L 7.265625 -33.359375 C 7.378906 -33.804688 7.4375 -34.140625 7.4375 -34.359375 C 7.4375 -34.921875 7.296875 -35.398438 7.015625 -35.796875 C 6.734375 -36.191406 6.335938 -36.613281 5.828125 -37.0625 C 4.984375 -37.800781 4.5625 -38.453125 4.5625 -39.015625 C 4.5 -39.796875 4.972656 -40.632812 5.984375 -41.53125 C 7.003906 -42.4375 8.425781 -43.1875 10.25 -43.78125 C 12.082031 -44.375 14.15625 -44.671875 16.46875 -44.671875 C 20.238281 -44.671875 23.175781 -43.753906 25.28125 -41.921875 C 27.394531 -40.085938 28.453125 -37.707031 28.453125 -34.78125 C 28.453125 -33.488281 28.226562 -32.082031 27.78125 -30.5625 L 22.296875 -12.5 C 22.117188 -11.988281 22.03125 -11.566406 22.03125 -11.234375 C 22.03125 -10.492188 22.285156 -9.925781 22.796875 -9.53125 C 23.304688 -9.144531 24.007812 -8.953125 24.90625 -8.953125 C 26.144531 -8.953125 27.59375 -9.5 29.25 -10.59375 C 30.914062 -11.695312 32.5625 -13.273438 34.1875 -15.328125 C 35.820312 -17.378906 37.148438 -19.8125 38.171875 -22.625 C 35.910156 -24.59375 34.316406 -26.535156 33.390625 -28.453125 C 32.460938 -30.367188 32 -32.335938 32 -34.359375 C 32 -37.234375 32.785156 -39.671875 34.359375 -41.671875 C 35.941406 -43.671875 38.222656 -44.671875 41.203125 -44.671875 Z M 41.203125 -44.671875 "/></g></g></g><g fill="#ffaa04" fill-opacity="0.502"><g transform="translate(237.824952, 187.432173)"><g><path d="M 32.671875 -44.671875 C 40.328125 -44.671875 45.96875 -43.117188 49.59375 -40.015625 C 53.226562 -36.921875 55.046875 -32.867188 55.046875 -27.859375 C 55.046875 -26.171875 54.820312 -24.285156 54.375 -22.203125 C 53.3125 -17.585938 51.3125 -13.546875 48.375 -10.078125 C 45.445312 -6.617188 41.859375 -3.945312 37.609375 -2.0625 C 33.359375 -0.175781 28.757812 0.765625 23.8125 0.765625 C 15.988281 0.765625 10.203125 -0.796875 6.453125 -3.921875 C 2.710938 -7.046875 0.84375 -11.195312 0.84375 -16.375 C 0.84375 -18.125 1.066406 -20.066406 1.515625 -22.203125 C 2.585938 -26.597656 4.628906 -30.5 7.640625 -33.90625 C 10.648438 -37.3125 14.335938 -39.957031 18.703125 -41.84375 C 23.066406 -43.726562 27.722656 -44.671875 32.671875 -44.671875 Z M 32.421875 -37.15625 C 31.242188 -37.15625 29.992188 -36.097656 28.671875 -33.984375 C 27.347656 -31.867188 25.785156 -27.882812 23.984375 -22.03125 C 22.179688 -16.175781 21.28125 -12.066406 21.28125 -9.703125 C 21.28125 -8.472656 21.472656 -7.644531 21.859375 -7.21875 C 22.253906 -6.800781 22.789062 -6.59375 23.46875 -6.59375 C 24.65625 -6.476562 25.878906 -7.488281 27.140625 -9.625 C 28.410156 -11.757812 30.003906 -15.925781 31.921875 -22.125 C 33.660156 -27.582031 34.53125 -31.550781 34.53125 -34.03125 C 34.53125 -35.207031 34.347656 -36.019531 33.984375 -36.46875 C 33.617188 -36.925781 33.097656 -37.15625 32.421875 -37.15625 Z M 32.421875 -37.15625 "/></g></g></g><g fill="#ffaa04" fill-opacity="0.502"><g transform="translate(293.213391, 187.432173)"><g><path d="M 52.265625 -11.65625 C 52.148438 -11.425781 52.09375 -11.085938 52.09375 -10.640625 C 52.09375 -10.242188 52.191406 -9.929688 52.390625 -9.703125 C 52.585938 -9.484375 52.859375 -9.375 53.203125 -9.375 C 53.867188 -9.375 54.441406 -9.664062 54.921875 -10.25 C 55.398438 -10.84375 55.722656 -11.140625 55.890625 -11.140625 C 56.171875 -11.140625 56.394531 -10.957031 56.5625 -10.59375 C 56.738281 -10.226562 56.828125 -9.789062 56.828125 -9.28125 C 56.878906 -7.65625 56.34375 -6.066406 55.21875 -4.515625 C 54.09375 -2.972656 52.445312 -1.707031 50.28125 -0.71875 C 48.113281 0.269531 45.507812 0.765625 42.46875 0.765625 C 38.757812 0.765625 35.804688 -0.09375 33.609375 -1.8125 C 31.410156 -3.53125 30.285156 -5.828125 30.234375 -8.703125 C 30.234375 -10.785156 30.738281 -13.117188 31.75 -15.703125 L 36.390625 -27.859375 C 36.671875 -28.597656 36.8125 -29.191406 36.8125 -29.640625 C 36.8125 -30.367188 36.570312 -30.941406 36.09375 -31.359375 C 35.613281 -31.785156 35.035156 -32 34.359375 -32 C 33.128906 -32 31.945312 -31.421875 30.8125 -30.265625 C 29.6875 -29.117188 28.875 -27.695312 28.375 -26 L 23.140625 -8.78125 C 22.910156 -8.164062 22.796875 -7.578125 22.796875 -7.015625 C 22.796875 -6.335938 22.9375 -5.785156 23.21875 -5.359375 C 23.5 -4.941406 23.894531 -4.503906 24.40625 -4.046875 C 24.800781 -3.710938 25.082031 -3.40625 25.25 -3.125 C 25.414062 -2.84375 25.441406 -2.503906 25.328125 -2.109375 C 25.109375 -1.378906 24.570312 -0.84375 23.71875 -0.5 C 22.875 -0.164062 21.554688 0 19.765625 0 L 0.5 0 C -0.957031 0 -2.007812 -0.238281 -2.65625 -0.71875 C -3.300781 -1.195312 -3.539062 -1.832031 -3.375 -2.625 C -3.15625 -3.289062 -2.566406 -3.878906 -1.609375 -4.390625 C -0.765625 -4.835938 -0.0625 -5.367188 0.5 -5.984375 C 1.0625 -6.609375 1.539062 -7.597656 1.9375 -8.953125 L 9.453125 -33.359375 C 9.566406 -33.640625 9.625 -34.03125 9.625 -34.53125 C 9.625 -35.15625 9.492188 -35.632812 9.234375 -35.96875 C 8.984375 -36.3125 8.578125 -36.734375 8.015625 -37.234375 C 7.453125 -37.679688 7.054688 -38.070312 6.828125 -38.40625 C 6.609375 -38.75 6.582031 -39.203125 6.75 -39.765625 C 7.09375 -41.066406 8.867188 -42.207031 12.078125 -43.1875 C 15.285156 -44.175781 18.632812 -44.671875 22.125 -44.671875 C 24.9375 -44.671875 27.15625 -43.894531 28.78125 -42.34375 C 30.414062 -40.789062 31.148438 -38.640625 30.984375 -35.890625 C 33.296875 -39.210938 35.742188 -41.503906 38.328125 -42.765625 C 40.921875 -44.035156 43.738281 -44.671875 46.78125 -44.671875 C 50.207031 -44.671875 52.976562 -43.628906 55.09375 -41.546875 C 57.207031 -39.460938 58.265625 -36.757812 58.265625 -33.4375 C 58.265625 -31.6875 57.984375 -29.96875 57.421875 -28.28125 Z M 52.265625 -11.65625 "/></g></g></g><g fill="#ffffff" fill-opacity="1"><g transform="translate(24.161615, 185.59266)"><g><path d="M 67.640625 -56.234375 C 70.734375 -56.234375 72.28125 -54.96875 72.28125 -52.4375 C 72.28125 -51.644531 72.109375 -50.660156 71.765625 -49.484375 L 69.75 -42.640625 C 69.125 -40.554688 68.359375 -39.09375 67.453125 -38.25 C 66.554688 -37.40625 65.265625 -36.984375 63.578125 -36.984375 C 62.171875 -36.984375 61.085938 -37.347656 60.328125 -38.078125 C 59.566406 -38.804688 58.847656 -39.960938 58.171875 -41.546875 L 56.734375 -45 C 56.285156 -46.070312 55.804688 -46.804688 55.296875 -47.203125 C 54.796875 -47.597656 54.007812 -47.796875 52.9375 -47.796875 L 51 -47.796875 L 40.28125 -10.046875 C 40.101562 -9.316406 40.015625 -8.671875 40.015625 -8.109375 C 40.015625 -7.429688 40.113281 -6.863281 40.3125 -6.40625 C 40.507812 -5.957031 40.804688 -5.484375 41.203125 -4.984375 C 41.710938 -4.191406 41.96875 -3.546875 41.96875 -3.046875 C 41.96875 -2.929688 41.910156 -2.648438 41.796875 -2.203125 C 41.515625 -1.460938 40.960938 -0.921875 40.140625 -0.578125 C 39.328125 -0.242188 38.160156 -0.078125 36.640625 -0.078125 L 16.796875 -0.078125 C 15.617188 -0.078125 14.707031 -0.273438 14.0625 -0.671875 C 13.414062 -1.066406 13.09375 -1.628906 13.09375 -2.359375 C 13.09375 -2.703125 13.175781 -3.039062 13.34375 -3.375 C 13.5625 -3.882812 13.828125 -4.265625 14.140625 -4.515625 C 14.453125 -4.765625 14.914062 -5.085938 15.53125 -5.484375 C 16.375 -5.992188 17.078125 -6.554688 17.640625 -7.171875 C 18.203125 -7.796875 18.679688 -8.753906 19.078125 -10.046875 L 29.71875 -47.796875 L 27.78125 -47.796875 C 26.539062 -47.796875 25.523438 -47.597656 24.734375 -47.203125 C 23.953125 -46.804688 23.109375 -46.070312 22.203125 -45 L 19.421875 -41.546875 C 18.128906 -40.023438 16.875 -38.882812 15.65625 -38.125 C 14.445312 -37.363281 13.140625 -36.984375 11.734375 -36.984375 C 10.441406 -36.984375 9.425781 -37.320312 8.6875 -38 C 7.957031 -38.675781 7.59375 -39.601562 7.59375 -40.78125 C 7.59375 -41.34375 7.679688 -41.960938 7.859375 -42.640625 L 10.046875 -50.328125 C 10.492188 -51.898438 11 -53.09375 11.5625 -53.90625 C 12.125 -54.726562 12.925781 -55.320312 13.96875 -55.6875 C 15.007812 -56.050781 16.488281 -56.234375 18.40625 -56.234375 Z M 67.640625 -56.234375 "/></g></g></g><g fill="#ffffff" fill-opacity="1"><g transform="translate(88.246729, 185.59266)"><g><path d="M 41.453125 -44.671875 C 44.609375 -44.671875 47.128906 -43.710938 49.015625 -41.796875 C 50.898438 -39.878906 51.84375 -37.515625 51.84375 -34.703125 C 51.84375 -33.628906 51.726562 -32.644531 51.5 -31.75 C 50.9375 -29.4375 49.867188 -27.660156 48.296875 -26.421875 C 46.722656 -25.191406 44.835938 -24.578125 42.640625 -24.578125 C 40.503906 -24.578125 38.882812 -25.082031 37.78125 -26.09375 C 36.6875 -27.101562 35.71875 -28.453125 34.875 -30.140625 C 34.425781 -31.097656 34.003906 -31.800781 33.609375 -32.25 C 33.210938 -32.707031 32.757812 -32.9375 32.25 -32.9375 C 31.6875 -32.9375 31.191406 -32.707031 30.765625 -32.25 C 30.347656 -31.800781 29.972656 -31.015625 29.640625 -29.890625 L 23.140625 -8.78125 C 23.023438 -8.5 22.96875 -8.078125 22.96875 -7.515625 C 22.96875 -6.785156 23.175781 -6.179688 23.59375 -5.703125 C 24.019531 -5.222656 24.597656 -4.757812 25.328125 -4.3125 C 26.003906 -3.851562 26.453125 -3.484375 26.671875 -3.203125 C 26.898438 -2.921875 26.988281 -2.554688 26.9375 -2.109375 C 26.820312 -1.378906 26.410156 -0.84375 25.703125 -0.5 C 25.003906 -0.164062 23.8125 0 22.125 0 L 0.5 0 C -0.957031 0 -2.007812 -0.238281 -2.65625 -0.71875 C -3.300781 -1.195312 -3.539062 -1.832031 -3.375 -2.625 C -3.15625 -3.289062 -2.566406 -3.878906 -1.609375 -4.390625 C -0.765625 -4.835938 -0.0625 -5.367188 0.5 -5.984375 C 1.0625 -6.609375 1.539062 -7.597656 1.9375 -8.953125 L 9.453125 -33.359375 C 9.566406 -33.640625 9.625 -34.03125 9.625 -34.53125 C 9.625 -35.15625 9.492188 -35.632812 9.234375 -35.96875 C 8.984375 -36.3125 8.578125 -36.734375 8.015625 -37.234375 C 7.453125 -37.679688 7.054688 -38.070312 6.828125 -38.40625 C 6.609375 -38.75 6.582031 -39.203125 6.75 -39.765625 C 7.09375 -41.066406 8.867188 -42.207031 12.078125 -43.1875 C 15.285156 -44.175781 18.632812 -44.671875 22.125 -44.671875 C 24.425781 -44.671875 26.335938 -44.148438 27.859375 -43.109375 C 29.378906 -42.066406 30.363281 -40.585938 30.8125 -38.671875 C 33.519531 -42.671875 37.066406 -44.671875 41.453125 -44.671875 Z M 41.453125 -44.671875 "/></g></g></g><g fill="#ffffff" fill-opacity="1"><g transform="translate(137.133792, 185.59266)"><g><path d="M 28.625 -45.09375 C 35.769531 -45.09375 40.945312 -43.953125 44.15625 -41.671875 C 47.363281 -39.390625 48.96875 -36.476562 48.96875 -32.9375 C 48.96875 -31.863281 48.859375 -30.875 48.640625 -29.96875 C 47.796875 -26.257812 45.441406 -23.601562 41.578125 -22 C 37.722656 -20.394531 33.179688 -19.59375 27.953125 -19.59375 C 25.304688 -19.59375 22.828125 -19.757812 20.515625 -20.09375 C 20.460938 -17.164062 21.25 -15.109375 22.875 -13.921875 C 24.507812 -12.742188 26.789062 -12.15625 29.71875 -12.15625 C 31.070312 -12.15625 32.367188 -12.3125 33.609375 -12.625 C 34.847656 -12.9375 36.421875 -13.398438 38.328125 -14.015625 C 39.910156 -14.578125 40.984375 -14.859375 41.546875 -14.859375 C 42.160156 -14.859375 42.46875 -14.492188 42.46875 -13.765625 C 42.53125 -11.796875 41.800781 -9.726562 40.28125 -7.5625 C 38.757812 -5.394531 36.503906 -3.550781 33.515625 -2.03125 C 30.535156 -0.507812 26.9375 0.25 22.71875 0.25 C 16.46875 0.25 11.34375 -1.320312 7.34375 -4.46875 C 3.34375 -7.625 1.34375 -12.210938 1.34375 -18.234375 C 1.34375 -19.921875 1.570312 -21.894531 2.03125 -24.15625 C 3.4375 -31.070312 6.515625 -36.289062 11.265625 -39.8125 C 16.023438 -43.332031 21.8125 -45.09375 28.625 -45.09375 Z M 21.109375 -25.15625 C 21.335938 -25.101562 21.644531 -25.078125 22.03125 -25.078125 C 24.394531 -25.078125 26.195312 -26.175781 27.4375 -28.375 C 28.675781 -30.570312 29.269531 -33.019531 29.21875 -35.71875 C 29.15625 -37.289062 28.703125 -38.078125 27.859375 -38.078125 C 27.242188 -38.078125 26.515625 -37.582031 25.671875 -36.59375 C 24.828125 -35.613281 23.992188 -34.140625 23.171875 -32.171875 C 22.359375 -30.203125 21.671875 -27.863281 21.109375 -25.15625 Z M 21.109375 -25.15625 "/></g></g></g><g fill="#ffffff" fill-opacity="1"><g transform="translate(184.41661, 185.59266)"><g><path d="M 41.203125 -44.671875 C 44.191406 -44.671875 46.671875 -43.597656 48.640625 -41.453125 C 50.609375 -39.316406 51.59375 -36.390625 51.59375 -32.671875 C 51.59375 -27.660156 49.847656 -22.535156 46.359375 -17.296875 C 42.867188 -12.066406 38.445312 -7.75 33.09375 -4.34375 C 27.75 -0.9375 22.546875 0.765625 17.484375 0.765625 C 12.640625 0.765625 8.710938 -0.21875 5.703125 -2.1875 C 2.691406 -4.164062 1.1875 -6.984375 1.1875 -10.640625 C 1.1875 -11.992188 1.4375 -13.515625 1.9375 -15.203125 L 7.265625 -33.359375 C 7.378906 -33.804688 7.4375 -34.140625 7.4375 -34.359375 C 7.4375 -34.921875 7.296875 -35.398438 7.015625 -35.796875 C 6.734375 -36.191406 6.335938 -36.613281 5.828125 -37.0625 C 4.984375 -37.800781 4.5625 -38.453125 4.5625 -39.015625 C 4.5 -39.796875 4.972656 -40.632812 5.984375 -41.53125 C 7.003906 -42.4375 8.425781 -43.1875 10.25 -43.78125 C 12.082031 -44.375 14.15625 -44.671875 16.46875 -44.671875 C 20.238281 -44.671875 23.175781 -43.753906 25.28125 -41.921875 C 27.394531 -40.085938 28.453125 -37.707031 28.453125 -34.78125 C 28.453125 -33.488281 28.226562 -32.082031 27.78125 -30.5625 L 22.296875 -12.5 C 22.117188 -11.988281 22.03125 -11.566406 22.03125 -11.234375 C 22.03125 -10.492188 22.285156 -9.925781 22.796875 -9.53125 C 23.304688 -9.144531 24.007812 -8.953125 24.90625 -8.953125 C 26.144531 -8.953125 27.59375 -9.5 29.25 -10.59375 C 30.914062 -11.695312 32.5625 -13.273438 34.1875 -15.328125 C 35.820312 -17.378906 37.148438 -19.8125 38.171875 -22.625 C 35.910156 -24.59375 34.316406 -26.535156 33.390625 -28.453125 C 32.460938 -30.367188 32 -32.335938 32 -34.359375 C 32 -37.234375 32.785156 -39.671875 34.359375 -41.671875 C 35.941406 -43.671875 38.222656 -44.671875 41.203125 -44.671875 Z M 41.203125 -44.671875 "/></g></g></g><g fill="#ffffff" fill-opacity="1"><g transform="translate(234.992351, 185.59266)"><g><path d="M 32.671875 -44.671875 C 40.328125 -44.671875 45.96875 -43.117188 49.59375 -40.015625 C 53.226562 -36.921875 55.046875 -32.867188 55.046875 -27.859375 C 55.046875 -26.171875 54.820312 -24.285156 54.375 -22.203125 C 53.3125 -17.585938 51.3125 -13.546875 48.375 -10.078125 C 45.445312 -6.617188 41.859375 -3.945312 37.609375 -2.0625 C 33.359375 -0.175781 28.757812 0.765625 23.8125 0.765625 C 15.988281 0.765625 10.203125 -0.796875 6.453125 -3.921875 C 2.710938 -7.046875 0.84375 -11.195312 0.84375 -16.375 C 0.84375 -18.125 1.066406 -20.066406 1.515625 -22.203125 C 2.585938 -26.597656 4.628906 -30.5 7.640625 -33.90625 C 10.648438 -37.3125 14.335938 -39.957031 18.703125 -41.84375 C 23.066406 -43.726562 27.722656 -44.671875 32.671875 -44.671875 Z M 32.421875 -37.15625 C 31.242188 -37.15625 29.992188 -36.097656 28.671875 -33.984375 C 27.347656 -31.867188 25.785156 -27.882812 23.984375 -22.03125 C 22.179688 -16.175781 21.28125 -12.066406 21.28125 -9.703125 C 21.28125 -8.472656 21.472656 -7.644531 21.859375 -7.21875 C 22.253906 -6.800781 22.789062 -6.59375 23.46875 -6.59375 C 24.65625 -6.476562 25.878906 -7.488281 27.140625 -9.625 C 28.410156 -11.757812 30.003906 -15.925781 31.921875 -22.125 C 33.660156 -27.582031 34.53125 -31.550781 34.53125 -34.03125 C 34.53125 -35.207031 34.347656 -36.019531 33.984375 -36.46875 C 33.617188 -36.925781 33.097656 -37.15625 32.421875 -37.15625 Z M 32.421875 -37.15625 "/></g></g></g><g fill="#ffffff" fill-opacity="1"><g transform="translate(290.38079, 185.59266)"><g><path d="M 52.265625 -11.65625 C 52.148438 -11.425781 52.09375 -11.085938 52.09375 -10.640625 C 52.09375 -10.242188 52.191406 -9.929688 52.390625 -9.703125 C 52.585938 -9.484375 52.859375 -9.375 53.203125 -9.375 C 53.867188 -9.375 54.441406 -9.664062 54.921875 -10.25 C 55.398438 -10.84375 55.722656 -11.140625 55.890625 -11.140625 C 56.171875 -11.140625 56.394531 -10.957031 56.5625 -10.59375 C 56.738281 -10.226562 56.828125 -9.789062 56.828125 -9.28125 C 56.878906 -7.65625 56.34375 -6.066406 55.21875 -4.515625 C 54.09375 -2.972656 52.445312 -1.707031 50.28125 -0.71875 C 48.113281 0.269531 45.507812 0.765625 42.46875 0.765625 C 38.757812 0.765625 35.804688 -0.09375 33.609375 -1.8125 C 31.410156 -3.53125 30.285156 -5.828125 30.234375 -8.703125 C 30.234375 -10.785156 30.738281 -13.117188 31.75 -15.703125 L 36.390625 -27.859375 C 36.671875 -28.597656 36.8125 -29.191406 36.8125 -29.640625 C 36.8125 -30.367188 36.570312 -30.941406 36.09375 -31.359375 C 35.613281 -31.785156 35.035156 -32 34.359375 -32 C 33.128906 -32 31.945312 -31.421875 30.8125 -30.265625 C 29.6875 -29.117188 28.875 -27.695312 28.375 -26 L 23.140625 -8.78125 C 22.910156 -8.164062 22.796875 -7.578125 22.796875 -7.015625 C 22.796875 -6.335938 22.9375 -5.785156 23.21875 -5.359375 C 23.5 -4.941406 23.894531 -4.503906 24.40625 -4.046875 C 24.800781 -3.710938 25.082031 -3.40625 25.25 -3.125 C 25.414062 -2.84375 25.441406 -2.503906 25.328125 -2.109375 C 25.109375 -1.378906 24.570312 -0.84375 23.71875 -0.5 C 22.875 -0.164062 21.554688 0 19.765625 0 L 0.5 0 C -0.957031 0 -2.007812 -0.238281 -2.65625 -0.71875 C -3.300781 -1.195312 -3.539062 -1.832031 -3.375 -2.625 C -3.15625 -3.289062 -2.566406 -3.878906 -1.609375 -4.390625 C -0.765625 -4.835938 -0.0625 -5.367188 0.5 -5.984375 C 1.0625 -6.609375 1.539062 -7.597656 1.9375 -8.953125 L 9.453125 -33.359375 C 9.566406 -33.640625 9.625 -34.03125 9.625 -34.53125 C 9.625 -35.15625 9.492188 -35.632812 9.234375 -35.96875 C 8.984375 -36.3125 8.578125 -36.734375 8.015625 -37.234375 C 7.453125 -37.679688 7.054688 -38.070312 6.828125 -38.40625 C 6.609375 -38.75 6.582031 -39.203125 6.75 -39.765625 C 7.09375 -41.066406 8.867188 -42.207031 12.078125 -43.1875 C 15.285156 -44.175781 18.632812 -44.671875 22.125 -44.671875 C 24.9375 -44.671875 27.15625 -43.894531 28.78125 -42.34375 C 30.414062 -40.789062 31.148438 -38.640625 30.984375 -35.890625 C 33.296875 -39.210938 35.742188 -41.503906 38.328125 -42.765625 C 40.921875 -44.035156 43.738281 -44.671875 46.78125 -44.671875 C 50.207031 -44.671875 52.976562 -43.628906 55.09375 -41.546875 C 57.207031 -39.460938 58.265625 -36.757812 58.265625 -33.4375 C 58.265625 -31.6875 57.984375 -29.96875 57.421875 -28.28125 Z M 52.265625 -11.65625 "/></g></g></g><g fill="#ffaa04" fill-opacity="0.302"><g transform="translate(46.47916, 253.85641)"><g><path d="M 29.390625 0.5 C 24.660156 0.5 20.410156 -0.367188 16.640625 -2.109375 C 12.867188 -3.859375 9.867188 -6.4375 7.640625 -9.84375 C 5.421875 -13.25 4.3125 -17.367188 4.3125 -22.203125 C 4.3125 -25.578125 4.898438 -29.238281 6.078125 -33.1875 C 8.671875 -41.625 12.582031 -47.710938 17.8125 -51.453125 C 23.050781 -55.203125 28.65625 -57.078125 34.625 -57.078125 C 37.832031 -57.078125 40.671875 -56.597656 43.140625 -55.640625 C 45.617188 -54.679688 47.898438 -53.300781 49.984375 -51.5 L 52.265625 -53.28125 C 53.785156 -54.457031 55.066406 -55.269531 56.109375 -55.71875 C 57.148438 -56.175781 58.316406 -56.40625 59.609375 -56.40625 C 61.015625 -56.40625 62.140625 -56.09375 62.984375 -55.46875 C 63.828125 -54.851562 64.25 -53.957031 64.25 -52.78125 C 64.25 -52.15625 64.140625 -51.535156 63.921875 -50.921875 L 59.1875 -37.75 C 58.6875 -36.226562 58.082031 -35.15625 57.375 -34.53125 C 56.664062 -33.914062 55.609375 -33.609375 54.203125 -33.609375 C 52.742188 -33.609375 51.550781 -34.128906 50.625 -35.171875 C 49.695312 -36.210938 48.640625 -38 47.453125 -40.53125 C 46.097656 -43.175781 45 -44.921875 44.15625 -45.765625 C 43.3125 -46.609375 42.078125 -47.03125 40.453125 -47.03125 C 38.140625 -47.03125 35.910156 -45.609375 33.765625 -42.765625 C 31.628906 -39.921875 29.691406 -35.65625 27.953125 -29.96875 C 26.484375 -25.1875 25.75 -21.191406 25.75 -17.984375 C 25.75 -15.171875 26.285156 -13.070312 27.359375 -11.6875 C 28.429688 -10.3125 29.867188 -9.625 31.671875 -9.625 C 34.304688 -9.625 36.484375 -10.210938 38.203125 -11.390625 C 39.921875 -12.578125 41.679688 -14.1875 43.484375 -16.21875 C 44.609375 -17.445312 45.519531 -18.359375 46.21875 -18.953125 C 46.925781 -19.546875 47.675781 -19.84375 48.46875 -19.84375 C 49.476562 -19.84375 50.546875 -19.332031 51.671875 -18.3125 C 52.796875 -17.300781 53.332031 -16.289062 53.28125 -15.28125 C 53.332031 -14.039062 52.332031 -12.125 50.28125 -9.53125 C 48.226562 -6.945312 45.382812 -4.628906 41.75 -2.578125 C 38.125 -0.523438 34.003906 0.5 29.390625 0.5 Z M 29.390625 0.5 "/></g></g></g><g fill="#ffaa04" fill-opacity="0.302"><g transform="translate(104.907219, 253.85641)"><g><path d="M 32.671875 -44.671875 C 40.328125 -44.671875 45.96875 -43.117188 49.59375 -40.015625 C 53.226562 -36.921875 55.046875 -32.867188 55.046875 -27.859375 C 55.046875 -26.171875 54.820312 -24.285156 54.375 -22.203125 C 53.3125 -17.585938 51.3125 -13.546875 48.375 -10.078125 C 45.445312 -6.617188 41.859375 -3.945312 37.609375 -2.0625 C 33.359375 -0.175781 28.757812 0.765625 23.8125 0.765625 C 15.988281 0.765625 10.203125 -0.796875 6.453125 -3.921875 C 2.710938 -7.046875 0.84375 -11.195312 0.84375 -16.375 C 0.84375 -18.125 1.066406 -20.066406 1.515625 -22.203125 C 2.585938 -26.597656 4.628906 -30.5 7.640625 -33.90625 C 10.648438 -37.3125 14.335938 -39.957031 18.703125 -41.84375 C 23.066406 -43.726562 27.722656 -44.671875 32.671875 -44.671875 Z M 32.421875 -37.15625 C 31.242188 -37.15625 29.992188 -36.097656 28.671875 -33.984375 C 27.347656 -31.867188 25.785156 -27.882812 23.984375 -22.03125 C 22.179688 -16.175781 21.28125 -12.066406 21.28125 -9.703125 C 21.28125 -8.472656 21.472656 -7.644531 21.859375 -7.21875 C 22.253906 -6.800781 22.789062 -6.59375 23.46875 -6.59375 C 24.65625 -6.476562 25.878906 -7.488281 27.140625 -9.625 C 28.410156 -11.757812 30.003906 -15.925781 31.921875 -22.125 C 33.660156 -27.582031 34.53125 -31.550781 34.53125 -34.03125 C 34.53125 -35.207031 34.347656 -36.019531 33.984375 -36.46875 C 33.617188 -36.925781 33.097656 -37.15625 32.421875 -37.15625 Z M 32.421875 -37.15625 "/></g></g></g><g fill="#ffaa04" fill-opacity="0.302"><g transform="translate(160.29567, 253.85641)"><g><path d="M 27.78125 -45.421875 C 32.445312 -45.421875 36.484375 -45 39.890625 -44.15625 C 43.296875 -43.3125 45.914062 -42.128906 47.75 -40.609375 C 49.582031 -39.085938 50.5 -37.375 50.5 -35.46875 C 50.5 -33.5 49.722656 -31.894531 48.171875 -30.65625 C 46.617188 -29.414062 44.46875 -28.796875 41.71875 -28.796875 C 38.894531 -28.796875 36.515625 -29.5 34.578125 -30.90625 C 32.640625 -32.3125 31.671875 -34.082031 31.671875 -36.21875 C 31.671875 -36.957031 31.78125 -37.660156 32 -38.328125 C 30.988281 -38.609375 30.085938 -38.75 29.296875 -38.75 C 27.890625 -38.75 26.722656 -38.410156 25.796875 -37.734375 C 24.867188 -37.066406 24.429688 -36.113281 24.484375 -34.875 C 24.484375 -33.40625 25.210938 -32.164062 26.671875 -31.15625 C 28.140625 -30.144531 30.507812 -28.878906 33.78125 -27.359375 C 36.59375 -26.117188 38.910156 -24.976562 40.734375 -23.9375 C 42.566406 -22.894531 44.113281 -21.582031 45.375 -20 C 46.644531 -18.425781 47.28125 -16.570312 47.28125 -14.4375 C 47.28125 -13.988281 47.171875 -13.144531 46.953125 -11.90625 C 46.046875 -8.132812 43.535156 -5.148438 39.421875 -2.953125 C 35.316406 -0.753906 29.914062 0.34375 23.21875 0.34375 C 15.675781 0.34375 9.695312 -0.664062 5.28125 -2.6875 C 0.863281 -4.71875 -1.34375 -7.507812 -1.34375 -11.0625 C -1.34375 -13.476562 -0.613281 -15.304688 0.84375 -16.546875 C 2.3125 -17.785156 4.253906 -18.40625 6.671875 -18.40625 C 9.484375 -18.40625 11.890625 -17.53125 13.890625 -15.78125 C 15.890625 -14.039062 16.890625 -11.820312 16.890625 -9.125 C 16.890625 -8.382812 16.804688 -7.625 16.640625 -6.84375 C 17.984375 -6.5 19.273438 -6.328125 20.515625 -6.328125 C 21.984375 -6.328125 23.191406 -6.722656 24.140625 -7.515625 C 25.097656 -8.304688 25.578125 -9.40625 25.578125 -10.8125 C 25.523438 -12.101562 24.878906 -13.210938 23.640625 -14.140625 C 22.398438 -15.066406 20.429688 -16.179688 17.734375 -17.484375 C 15.203125 -18.660156 13.117188 -19.769531 11.484375 -20.8125 C 9.847656 -21.851562 8.453125 -23.160156 7.296875 -24.734375 C 6.148438 -26.316406 5.578125 -28.175781 5.578125 -30.3125 C 5.578125 -34.925781 7.503906 -38.597656 11.359375 -41.328125 C 15.210938 -44.054688 20.6875 -45.421875 27.78125 -45.421875 Z M 27.78125 -45.421875 "/></g></g></g><g fill="#ffaa04" fill-opacity="0.302"><g transform="translate(210.364804, 253.85641)"><g><path d="M 37.75 -43.5625 C 38.8125 -43.5625 39.640625 -43.335938 40.234375 -42.890625 C 40.828125 -42.441406 41.125 -41.820312 41.125 -41.03125 C 41.125 -40.8125 41.066406 -40.421875 40.953125 -39.859375 C 40.222656 -37.378906 38.535156 -36.140625 35.890625 -36.140625 L 30.984375 -36.140625 L 24.65625 -15.28125 C 24.375 -14.4375 24.234375 -13.566406 24.234375 -12.671875 C 24.234375 -11.648438 24.515625 -10.941406 25.078125 -10.546875 C 25.640625 -10.160156 26.425781 -9.96875 27.4375 -9.96875 C 28.34375 -9.96875 29.46875 -10.078125 30.8125 -10.296875 C 31.488281 -10.472656 32.082031 -10.5625 32.59375 -10.5625 C 32.988281 -10.5625 33.285156 -10.429688 33.484375 -10.171875 C 33.679688 -9.921875 33.78125 -9.597656 33.78125 -9.203125 C 33.832031 -8.078125 33 -6.710938 31.28125 -5.109375 C 29.5625 -3.503906 27.238281 -2.125 24.3125 -0.96875 C 21.382812 0.1875 18.148438 0.765625 14.609375 0.765625 C 10.773438 0.765625 7.703125 -0.101562 5.390625 -1.84375 C 3.085938 -3.59375 1.9375 -5.988281 1.9375 -9.03125 C 1.9375 -10.4375 2.164062 -11.789062 2.625 -13.09375 L 8.015625 -29.8125 C 8.296875 -30.757812 8.4375 -31.519531 8.4375 -32.09375 C 8.4375 -33.21875 8.171875 -34.171875 7.640625 -34.953125 C 7.109375 -35.742188 6.363281 -36.5625 5.40625 -37.40625 C 4.5625 -38.195312 3.96875 -38.859375 3.625 -39.390625 C 3.289062 -39.921875 3.207031 -40.554688 3.375 -41.296875 C 3.601562 -42.023438 4.082031 -42.582031 4.8125 -42.96875 C 5.539062 -43.363281 6.695312 -43.5625 8.28125 -43.5625 L 13 -43.5625 L 18.328125 -48.890625 C 20.179688 -50.742188 21.878906 -52.035156 23.421875 -52.765625 C 24.972656 -53.503906 26.988281 -53.875 29.46875 -53.875 C 33.007812 -53.875 34.78125 -52.519531 34.78125 -49.8125 C 34.78125 -48.96875 34.671875 -48.179688 34.453125 -47.453125 L 33.265625 -43.5625 Z M 37.75 -43.5625 "/></g></g></g><g fill="#ffaa04" fill-opacity="0.302"><g transform="translate(246.671241, 253.85641)"><g><path d="M 30.140625 -44.671875 C 36.617188 -44.671875 41.796875 -43.472656 45.671875 -41.078125 C 49.554688 -38.679688 51.5 -35.035156 51.5 -30.140625 C 51.5 -28.285156 51.164062 -26.175781 50.5 -23.8125 L 47.03125 -12.15625 C 46.976562 -11.9375 46.953125 -11.65625 46.953125 -11.3125 C 46.953125 -10.414062 47.316406 -9.96875 48.046875 -9.96875 C 48.722656 -9.96875 49.300781 -10.257812 49.78125 -10.84375 C 50.257812 -11.4375 50.582031 -11.734375 50.75 -11.734375 C 51.03125 -11.734375 51.269531 -11.535156 51.46875 -11.140625 C 51.664062 -10.753906 51.765625 -10.304688 51.765625 -9.796875 C 51.816406 -8.273438 51.238281 -6.722656 50.03125 -5.140625 C 48.820312 -3.566406 47.203125 -2.273438 45.171875 -1.265625 C 43.148438 -0.253906 40.925781 0.25 38.5 0.25 C 35.570312 0.25 33.066406 -0.28125 30.984375 -1.34375 C 28.898438 -2.414062 27.46875 -3.992188 26.6875 -6.078125 C 25 -4.054688 23 -2.492188 20.6875 -1.390625 C 18.375 -0.296875 15.894531 0.25 13.25 0.25 C 10.269531 0.25 7.765625 -0.320312 5.734375 -1.46875 C 3.710938 -2.625 2.207031 -4.117188 1.21875 -5.953125 C 0.238281 -7.785156 -0.25 -9.710938 -0.25 -11.734375 C -0.25 -12.640625 -0.164062 -13.515625 0 -14.359375 C 0.894531 -18.242188 2.847656 -21.171875 5.859375 -23.140625 C 8.878906 -25.109375 12.472656 -26.09375 16.640625 -26.09375 C 21.304688 -26.09375 25.890625 -25.359375 30.390625 -23.890625 L 32.515625 -29.46875 C 33.242188 -31.832031 33.609375 -33.660156 33.609375 -34.953125 C 33.546875 -36.304688 33.09375 -37.320312 32.25 -38 C 31.40625 -38.675781 30.113281 -39.015625 28.375 -39.015625 C 28.707031 -38.109375 28.875 -37.175781 28.875 -36.21875 C 28.875 -34.132812 28.085938 -32.332031 26.515625 -30.8125 C 24.941406 -29.300781 22.691406 -28.546875 19.765625 -28.546875 C 17.003906 -28.546875 14.847656 -29.148438 13.296875 -30.359375 C 11.753906 -31.566406 10.984375 -33.070312 10.984375 -34.875 C 10.984375 -37.6875 12.554688 -40.019531 15.703125 -41.875 C 18.859375 -43.738281 23.671875 -44.671875 30.140625 -44.671875 Z M 25.421875 -19.078125 C 23.835938 -19.078125 22.550781 -18.472656 21.5625 -17.265625 C 20.582031 -16.054688 20.09375 -14.75 20.09375 -13.34375 C 20.09375 -12.4375 20.300781 -11.703125 20.71875 -11.140625 C 21.144531 -10.578125 21.753906 -10.296875 22.546875 -10.296875 C 23.273438 -10.296875 24.078125 -10.59375 24.953125 -11.1875 C 25.828125 -11.78125 26.457031 -12.664062 26.84375 -13.84375 L 28.625 -18.828125 C 27.664062 -18.992188 26.597656 -19.078125 25.421875 -19.078125 Z M 25.421875 -19.078125 "/></g></g></g><g fill="#ffaa04" fill-opacity="0.302"><g transform="translate(301.890811, 253.85641)"><g/></g></g><g fill="#ffaa04" fill-opacity="0.302"><g transform="translate(318.777529, 253.85641)"><g><path d="M 10.046875 -17.0625 C 12.296875 -17.0625 14.191406 -16.300781 15.734375 -14.78125 C 17.285156 -13.257812 18.0625 -11.398438 18.0625 -9.203125 C 18.0625 -7.679688 17.65625 -6.1875 16.84375 -4.71875 C 16.03125 -3.257812 14.90625 -2.066406 13.46875 -1.140625 C 12.03125 -0.210938 10.410156 0.25 8.609375 0.25 C 6.410156 0.25 4.550781 -0.507812 3.03125 -2.03125 C 1.519531 -3.550781 0.734375 -5.40625 0.671875 -7.59375 C 0.671875 -9.113281 1.066406 -10.601562 1.859375 -12.0625 C 2.648438 -13.53125 3.757812 -14.726562 5.1875 -15.65625 C 6.625 -16.59375 8.242188 -17.0625 10.046875 -17.0625 Z M 10.046875 -17.0625 "/></g></g></g><g fill="#ffaa04" fill-opacity="0.502"><g transform="translate(43.646559, 252.016887)"><g><path d="M 29.390625 0.5 C 24.660156 0.5 20.410156 -0.367188 16.640625 -2.109375 C 12.867188 -3.859375 9.867188 -6.4375 7.640625 -9.84375 C 5.421875 -13.25 4.3125 -17.367188 4.3125 -22.203125 C 4.3125 -25.578125 4.898438 -29.238281 6.078125 -33.1875 C 8.671875 -41.625 12.582031 -47.710938 17.8125 -51.453125 C 23.050781 -55.203125 28.65625 -57.078125 34.625 -57.078125 C 37.832031 -57.078125 40.671875 -56.597656 43.140625 -55.640625 C 45.617188 -54.679688 47.898438 -53.300781 49.984375 -51.5 L 52.265625 -53.28125 C 53.785156 -54.457031 55.066406 -55.269531 56.109375 -55.71875 C 57.148438 -56.175781 58.316406 -56.40625 59.609375 -56.40625 C 61.015625 -56.40625 62.140625 -56.09375 62.984375 -55.46875 C 63.828125 -54.851562 64.25 -53.957031 64.25 -52.78125 C 64.25 -52.15625 64.140625 -51.535156 63.921875 -50.921875 L 59.1875 -37.75 C 58.6875 -36.226562 58.082031 -35.15625 57.375 -34.53125 C 56.664062 -33.914062 55.609375 -33.609375 54.203125 -33.609375 C 52.742188 -33.609375 51.550781 -34.128906 50.625 -35.171875 C 49.695312 -36.210938 48.640625 -38 47.453125 -40.53125 C 46.097656 -43.175781 45 -44.921875 44.15625 -45.765625 C 43.3125 -46.609375 42.078125 -47.03125 40.453125 -47.03125 C 38.140625 -47.03125 35.910156 -45.609375 33.765625 -42.765625 C 31.628906 -39.921875 29.691406 -35.65625 27.953125 -29.96875 C 26.484375 -25.1875 25.75 -21.191406 25.75 -17.984375 C 25.75 -15.171875 26.285156 -13.070312 27.359375 -11.6875 C 28.429688 -10.3125 29.867188 -9.625 31.671875 -9.625 C 34.304688 -9.625 36.484375 -10.210938 38.203125 -11.390625 C 39.921875 -12.578125 41.679688 -14.1875 43.484375 -16.21875 C 44.609375 -17.445312 45.519531 -18.359375 46.21875 -18.953125 C 46.925781 -19.546875 47.675781 -19.84375 48.46875 -19.84375 C 49.476562 -19.84375 50.546875 -19.332031 51.671875 -18.3125 C 52.796875 -17.300781 53.332031 -16.289062 53.28125 -15.28125 C 53.332031 -14.039062 52.332031 -12.125 50.28125 -9.53125 C 48.226562 -6.945312 45.382812 -4.628906 41.75 -2.578125 C 38.125 -0.523438 34.003906 0.5 29.390625 0.5 Z M 29.390625 0.5 "/></g></g></g><g fill="#ffaa04" fill-opacity="0.502"><g transform="translate(102.074618, 252.016887)"><g><path d="M 32.671875 -44.671875 C 40.328125 -44.671875 45.96875 -43.117188 49.59375 -40.015625 C 53.226562 -36.921875 55.046875 -32.867188 55.046875 -27.859375 C 55.046875 -26.171875 54.820312 -24.285156 54.375 -22.203125 C 53.3125 -17.585938 51.3125 -13.546875 48.375 -10.078125 C 45.445312 -6.617188 41.859375 -3.945312 37.609375 -2.0625 C 33.359375 -0.175781 28.757812 0.765625 23.8125 0.765625 C 15.988281 0.765625 10.203125 -0.796875 6.453125 -3.921875 C 2.710938 -7.046875 0.84375 -11.195312 0.84375 -16.375 C 0.84375 -18.125 1.066406 -20.066406 1.515625 -22.203125 C 2.585938 -26.597656 4.628906 -30.5 7.640625 -33.90625 C 10.648438 -37.3125 14.335938 -39.957031 18.703125 -41.84375 C 23.066406 -43.726562 27.722656 -44.671875 32.671875 -44.671875 Z M 32.421875 -37.15625 C 31.242188 -37.15625 29.992188 -36.097656 28.671875 -33.984375 C 27.347656 -31.867188 25.785156 -27.882812 23.984375 -22.03125 C 22.179688 -16.175781 21.28125 -12.066406 21.28125 -9.703125 C 21.28125 -8.472656 21.472656 -7.644531 21.859375 -7.21875 C 22.253906 -6.800781 22.789062 -6.59375 23.46875 -6.59375 C 24.65625 -6.476562 25.878906 -7.488281 27.140625 -9.625 C 28.410156 -11.757812 30.003906 -15.925781 31.921875 -22.125 C 33.660156 -27.582031 34.53125 -31.550781 34.53125 -34.03125 C 34.53125 -35.207031 34.347656 -36.019531 33.984375 -36.46875 C 33.617188 -36.925781 33.097656 -37.15625 32.421875 -37.15625 Z M 32.421875 -37.15625 "/></g></g></g><g fill="#ffaa04" fill-opacity="0.502"><g transform="translate(157.463069, 252.016887)"><g><path d="M 27.78125 -45.421875 C 32.445312 -45.421875 36.484375 -45 39.890625 -44.15625 C 43.296875 -43.3125 45.914062 -42.128906 47.75 -40.609375 C 49.582031 -39.085938 50.5 -37.375 50.5 -35.46875 C 50.5 -33.5 49.722656 -31.894531 48.171875 -30.65625 C 46.617188 -29.414062 44.46875 -28.796875 41.71875 -28.796875 C 38.894531 -28.796875 36.515625 -29.5 34.578125 -30.90625 C 32.640625 -32.3125 31.671875 -34.082031 31.671875 -36.21875 C 31.671875 -36.957031 31.78125 -37.660156 32 -38.328125 C 30.988281 -38.609375 30.085938 -38.75 29.296875 -38.75 C 27.890625 -38.75 26.722656 -38.410156 25.796875 -37.734375 C 24.867188 -37.066406 24.429688 -36.113281 24.484375 -34.875 C 24.484375 -33.40625 25.210938 -32.164062 26.671875 -31.15625 C 28.140625 -30.144531 30.507812 -28.878906 33.78125 -27.359375 C 36.59375 -26.117188 38.910156 -24.976562 40.734375 -23.9375 C 42.566406 -22.894531 44.113281 -21.582031 45.375 -20 C 46.644531 -18.425781 47.28125 -16.570312 47.28125 -14.4375 C 47.28125 -13.988281 47.171875 -13.144531 46.953125 -11.90625 C 46.046875 -8.132812 43.535156 -5.148438 39.421875 -2.953125 C 35.316406 -0.753906 29.914062 0.34375 23.21875 0.34375 C 15.675781 0.34375 9.695312 -0.664062 5.28125 -2.6875 C 0.863281 -4.71875 -1.34375 -7.507812 -1.34375 -11.0625 C -1.34375 -13.476562 -0.613281 -15.304688 0.84375 -16.546875 C 2.3125 -17.785156 4.253906 -18.40625 6.671875 -18.40625 C 9.484375 -18.40625 11.890625 -17.53125 13.890625 -15.78125 C 15.890625 -14.039062 16.890625 -11.820312 16.890625 -9.125 C 16.890625 -8.382812 16.804688 -7.625 16.640625 -6.84375 C 17.984375 -6.5 19.273438 -6.328125 20.515625 -6.328125 C 21.984375 -6.328125 23.191406 -6.722656 24.140625 -7.515625 C 25.097656 -8.304688 25.578125 -9.40625 25.578125 -10.8125 C 25.523438 -12.101562 24.878906 -13.210938 23.640625 -14.140625 C 22.398438 -15.066406 20.429688 -16.179688 17.734375 -17.484375 C 15.203125 -18.660156 13.117188 -19.769531 11.484375 -20.8125 C 9.847656 -21.851562 8.453125 -23.160156 7.296875 -24.734375 C 6.148438 -26.316406 5.578125 -28.175781 5.578125 -30.3125 C 5.578125 -34.925781 7.503906 -38.597656 11.359375 -41.328125 C 15.210938 -44.054688 20.6875 -45.421875 27.78125 -45.421875 Z M 27.78125 -45.421875 "/></g></g></g><g fill="#ffaa04" fill-opacity="0.502"><g transform="translate(207.532203, 252.016887)"><g><path d="M 37.75 -43.5625 C 38.8125 -43.5625 39.640625 -43.335938 40.234375 -42.890625 C 40.828125 -42.441406 41.125 -41.820312 41.125 -41.03125 C 41.125 -40.8125 41.066406 -40.421875 40.953125 -39.859375 C 40.222656 -37.378906 38.535156 -36.140625 35.890625 -36.140625 L 30.984375 -36.140625 L 24.65625 -15.28125 C 24.375 -14.4375 24.234375 -13.566406 24.234375 -12.671875 C 24.234375 -11.648438 24.515625 -10.941406 25.078125 -10.546875 C 25.640625 -10.160156 26.425781 -9.96875 27.4375 -9.96875 C 28.34375 -9.96875 29.46875 -10.078125 30.8125 -10.296875 C 31.488281 -10.472656 32.082031 -10.5625 32.59375 -10.5625 C 32.988281 -10.5625 33.285156 -10.429688 33.484375 -10.171875 C 33.679688 -9.921875 33.78125 -9.597656 33.78125 -9.203125 C 33.832031 -8.078125 33 -6.710938 31.28125 -5.109375 C 29.5625 -3.503906 27.238281 -2.125 24.3125 -0.96875 C 21.382812 0.1875 18.148438 0.765625 14.609375 0.765625 C 10.773438 0.765625 7.703125 -0.101562 5.390625 -1.84375 C 3.085938 -3.59375 1.9375 -5.988281 1.9375 -9.03125 C 1.9375 -10.4375 2.164062 -11.789062 2.625 -13.09375 L 8.015625 -29.8125 C 8.296875 -30.757812 8.4375 -31.519531 8.4375 -32.09375 C 8.4375 -33.21875 8.171875 -34.171875 7.640625 -34.953125 C 7.109375 -35.742188 6.363281 -36.5625 5.40625 -37.40625 C 4.5625 -38.195312 3.96875 -38.859375 3.625 -39.390625 C 3.289062 -39.921875 3.207031 -40.554688 3.375 -41.296875 C 3.601562 -42.023438 4.082031 -42.582031 4.8125 -42.96875 C 5.539062 -43.363281 6.695312 -43.5625 8.28125 -43.5625 L 13 -43.5625 L 18.328125 -48.890625 C 20.179688 -50.742188 21.878906 -52.035156 23.421875 -52.765625 C 24.972656 -53.503906 26.988281 -53.875 29.46875 -53.875 C 33.007812 -53.875 34.78125 -52.519531 34.78125 -49.8125 C 34.78125 -48.96875 34.671875 -48.179688 34.453125 -47.453125 L 33.265625 -43.5625 Z M 37.75 -43.5625 "/></g></g></g><g fill="#ffaa04" fill-opacity="0.502"><g transform="translate(243.838639, 252.016887)"><g><path d="M 30.140625 -44.671875 C 36.617188 -44.671875 41.796875 -43.472656 45.671875 -41.078125 C 49.554688 -38.679688 51.5 -35.035156 51.5 -30.140625 C 51.5 -28.285156 51.164062 -26.175781 50.5 -23.8125 L 47.03125 -12.15625 C 46.976562 -11.9375 46.953125 -11.65625 46.953125 -11.3125 C 46.953125 -10.414062 47.316406 -9.96875 48.046875 -9.96875 C 48.722656 -9.96875 49.300781 -10.257812 49.78125 -10.84375 C 50.257812 -11.4375 50.582031 -11.734375 50.75 -11.734375 C 51.03125 -11.734375 51.269531 -11.535156 51.46875 -11.140625 C 51.664062 -10.753906 51.765625 -10.304688 51.765625 -9.796875 C 51.816406 -8.273438 51.238281 -6.722656 50.03125 -5.140625 C 48.820312 -3.566406 47.203125 -2.273438 45.171875 -1.265625 C 43.148438 -0.253906 40.925781 0.25 38.5 0.25 C 35.570312 0.25 33.066406 -0.28125 30.984375 -1.34375 C 28.898438 -2.414062 27.46875 -3.992188 26.6875 -6.078125 C 25 -4.054688 23 -2.492188 20.6875 -1.390625 C 18.375 -0.296875 15.894531 0.25 13.25 0.25 C 10.269531 0.25 7.765625 -0.320312 5.734375 -1.46875 C 3.710938 -2.625 2.207031 -4.117188 1.21875 -5.953125 C 0.238281 -7.785156 -0.25 -9.710938 -0.25 -11.734375 C -0.25 -12.640625 -0.164062 -13.515625 0 -14.359375 C 0.894531 -18.242188 2.847656 -21.171875 5.859375 -23.140625 C 8.878906 -25.109375 12.472656 -26.09375 16.640625 -26.09375 C 21.304688 -26.09375 25.890625 -25.359375 30.390625 -23.890625 L 32.515625 -29.46875 C 33.242188 -31.832031 33.609375 -33.660156 33.609375 -34.953125 C 33.546875 -36.304688 33.09375 -37.320312 32.25 -38 C 31.40625 -38.675781 30.113281 -39.015625 28.375 -39.015625 C 28.707031 -38.109375 28.875 -37.175781 28.875 -36.21875 C 28.875 -34.132812 28.085938 -32.332031 26.515625 -30.8125 C 24.941406 -29.300781 22.691406 -28.546875 19.765625 -28.546875 C 17.003906 -28.546875 14.847656 -29.148438 13.296875 -30.359375 C 11.753906 -31.566406 10.984375 -33.070312 10.984375 -34.875 C 10.984375 -37.6875 12.554688 -40.019531 15.703125 -41.875 C 18.859375 -43.738281 23.671875 -44.671875 30.140625 -44.671875 Z M 25.421875 -19.078125 C 23.835938 -19.078125 22.550781 -18.472656 21.5625 -17.265625 C 20.582031 -16.054688 20.09375 -14.75 20.09375 -13.34375 C 20.09375 -12.4375 20.300781 -11.703125 20.71875 -11.140625 C 21.144531 -10.578125 21.753906 -10.296875 22.546875 -10.296875 C 23.273438 -10.296875 24.078125 -10.59375 24.953125 -11.1875 C 25.828125 -11.78125 26.457031 -12.664062 26.84375 -13.84375 L 28.625 -18.828125 C 27.664062 -18.992188 26.597656 -19.078125 25.421875 -19.078125 Z M 25.421875 -19.078125 "/></g></g></g><g fill="#ffaa04" fill-opacity="0.502"><g transform="translate(299.05821, 252.016887)"><g/></g></g><g fill="#ffaa04" fill-opacity="0.502"><g transform="translate(315.944928, 252.016887)"><g><path d="M 10.046875 -17.0625 C 12.296875 -17.0625 14.191406 -16.300781 15.734375 -14.78125 C 17.285156 -13.257812 18.0625 -11.398438 18.0625 -9.203125 C 18.0625 -7.679688 17.65625 -6.1875 16.84375 -4.71875 C 16.03125 -3.257812 14.90625 -2.066406 13.46875 -1.140625 C 12.03125 -0.210938 10.410156 0.25 8.609375 0.25 C 6.410156 0.25 4.550781 -0.507812 3.03125 -2.03125 C 1.519531 -3.550781 0.734375 -5.40625 0.671875 -7.59375 C 0.671875 -9.113281 1.066406 -10.601562 1.859375 -12.0625 C 2.648438 -13.53125 3.757812 -14.726562 5.1875 -15.65625 C 6.625 -16.59375 8.242188 -17.0625 10.046875 -17.0625 Z M 10.046875 -17.0625 "/></g></g></g><g fill="#ffffff" fill-opacity="1"><g transform="translate(40.813958, 250.17738)"><g><path d="M 29.390625 0.5 C 24.660156 0.5 20.410156 -0.367188 16.640625 -2.109375 C 12.867188 -3.859375 9.867188 -6.4375 7.640625 -9.84375 C 5.421875 -13.25 4.3125 -17.367188 4.3125 -22.203125 C 4.3125 -25.578125 4.898438 -29.238281 6.078125 -33.1875 C 8.671875 -41.625 12.582031 -47.710938 17.8125 -51.453125 C 23.050781 -55.203125 28.65625 -57.078125 34.625 -57.078125 C 37.832031 -57.078125 40.671875 -56.597656 43.140625 -55.640625 C 45.617188 -54.679688 47.898438 -53.300781 49.984375 -51.5 L 52.265625 -53.28125 C 53.785156 -54.457031 55.066406 -55.269531 56.109375 -55.71875 C 57.148438 -56.175781 58.316406 -56.40625 59.609375 -56.40625 C 61.015625 -56.40625 62.140625 -56.09375 62.984375 -55.46875 C 63.828125 -54.851562 64.25 -53.957031 64.25 -52.78125 C 64.25 -52.15625 64.140625 -51.535156 63.921875 -50.921875 L 59.1875 -37.75 C 58.6875 -36.226562 58.082031 -35.15625 57.375 -34.53125 C 56.664062 -33.914062 55.609375 -33.609375 54.203125 -33.609375 C 52.742188 -33.609375 51.550781 -34.128906 50.625 -35.171875 C 49.695312 -36.210938 48.640625 -38 47.453125 -40.53125 C 46.097656 -43.175781 45 -44.921875 44.15625 -45.765625 C 43.3125 -46.609375 42.078125 -47.03125 40.453125 -47.03125 C 38.140625 -47.03125 35.910156 -45.609375 33.765625 -42.765625 C 31.628906 -39.921875 29.691406 -35.65625 27.953125 -29.96875 C 26.484375 -25.1875 25.75 -21.191406 25.75 -17.984375 C 25.75 -15.171875 26.285156 -13.070312 27.359375 -11.6875 C 28.429688 -10.3125 29.867188 -9.625 31.671875 -9.625 C 34.304688 -9.625 36.484375 -10.210938 38.203125 -11.390625 C 39.921875 -12.578125 41.679688 -14.1875 43.484375 -16.21875 C 44.609375 -17.445312 45.519531 -18.359375 46.21875 -18.953125 C 46.925781 -19.546875 47.675781 -19.84375 48.46875 -19.84375 C 49.476562 -19.84375 50.546875 -19.332031 51.671875 -18.3125 C 52.796875 -17.300781 53.332031 -16.289062 53.28125 -15.28125 C 53.332031 -14.039062 52.332031 -12.125 50.28125 -9.53125 C 48.226562 -6.945312 45.382812 -4.628906 41.75 -2.578125 C 38.125 -0.523438 34.003906 0.5 29.390625 0.5 Z M 29.390625 0.5 "/></g></g></g><g fill="#ffffff" fill-opacity="1"><g transform="translate(99.242017, 250.17738)"><g><path d="M 32.671875 -44.671875 C 40.328125 -44.671875 45.96875 -43.117188 49.59375 -40.015625 C 53.226562 -36.921875 55.046875 -32.867188 55.046875 -27.859375 C 55.046875 -26.171875 54.820312 -24.285156 54.375 -22.203125 C 53.3125 -17.585938 51.3125 -13.546875 48.375 -10.078125 C 45.445312 -6.617188 41.859375 -3.945312 37.609375 -2.0625 C 33.359375 -0.175781 28.757812 0.765625 23.8125 0.765625 C 15.988281 0.765625 10.203125 -0.796875 6.453125 -3.921875 C 2.710938 -7.046875 0.84375 -11.195312 0.84375 -16.375 C 0.84375 -18.125 1.066406 -20.066406 1.515625 -22.203125 C 2.585938 -26.597656 4.628906 -30.5 7.640625 -33.90625 C 10.648438 -37.3125 14.335938 -39.957031 18.703125 -41.84375 C 23.066406 -43.726562 27.722656 -44.671875 32.671875 -44.671875 Z M 32.421875 -37.15625 C 31.242188 -37.15625 29.992188 -36.097656 28.671875 -33.984375 C 27.347656 -31.867188 25.785156 -27.882812 23.984375 -22.03125 C 22.179688 -16.175781 21.28125 -12.066406 21.28125 -9.703125 C 21.28125 -8.472656 21.472656 -7.644531 21.859375 -7.21875 C 22.253906 -6.800781 22.789062 -6.59375 23.46875 -6.59375 C 24.65625 -6.476562 25.878906 -7.488281 27.140625 -9.625 C 28.410156 -11.757812 30.003906 -15.925781 31.921875 -22.125 C 33.660156 -27.582031 34.53125 -31.550781 34.53125 -34.03125 C 34.53125 -35.207031 34.347656 -36.019531 33.984375 -36.46875 C 33.617188 -36.925781 33.097656 -37.15625 32.421875 -37.15625 Z M 32.421875 -37.15625 "/></g></g></g><g fill="#ffffff" fill-opacity="1"><g transform="translate(154.630468, 250.17738)"><g><path d="M 27.78125 -45.421875 C 32.445312 -45.421875 36.484375 -45 39.890625 -44.15625 C 43.296875 -43.3125 45.914062 -42.128906 47.75 -40.609375 C 49.582031 -39.085938 50.5 -37.375 50.5 -35.46875 C 50.5 -33.5 49.722656 -31.894531 48.171875 -30.65625 C 46.617188 -29.414062 44.46875 -28.796875 41.71875 -28.796875 C 38.894531 -28.796875 36.515625 -29.5 34.578125 -30.90625 C 32.640625 -32.3125 31.671875 -34.082031 31.671875 -36.21875 C 31.671875 -36.957031 31.78125 -37.660156 32 -38.328125 C 30.988281 -38.609375 30.085938 -38.75 29.296875 -38.75 C 27.890625 -38.75 26.722656 -38.410156 25.796875 -37.734375 C 24.867188 -37.066406 24.429688 -36.113281 24.484375 -34.875 C 24.484375 -33.40625 25.210938 -32.164062 26.671875 -31.15625 C 28.140625 -30.144531 30.507812 -28.878906 33.78125 -27.359375 C 36.59375 -26.117188 38.910156 -24.976562 40.734375 -23.9375 C 42.566406 -22.894531 44.113281 -21.582031 45.375 -20 C 46.644531 -18.425781 47.28125 -16.570312 47.28125 -14.4375 C 47.28125 -13.988281 47.171875 -13.144531 46.953125 -11.90625 C 46.046875 -8.132812 43.535156 -5.148438 39.421875 -2.953125 C 35.316406 -0.753906 29.914062 0.34375 23.21875 0.34375 C 15.675781 0.34375 9.695312 -0.664062 5.28125 -2.6875 C 0.863281 -4.71875 -1.34375 -7.507812 -1.34375 -11.0625 C -1.34375 -13.476562 -0.613281 -15.304688 0.84375 -16.546875 C 2.3125 -17.785156 4.253906 -18.40625 6.671875 -18.40625 C 9.484375 -18.40625 11.890625 -17.53125 13.890625 -15.78125 C 15.890625 -14.039062 16.890625 -11.820312 16.890625 -9.125 C 16.890625 -8.382812 16.804688 -7.625 16.640625 -6.84375 C 17.984375 -6.5 19.273438 -6.328125 20.515625 -6.328125 C 21.984375 -6.328125 23.191406 -6.722656 24.140625 -7.515625 C 25.097656 -8.304688 25.578125 -9.40625 25.578125 -10.8125 C 25.523438 -12.101562 24.878906 -13.210938 23.640625 -14.140625 C 22.398438 -15.066406 20.429688 -16.179688 17.734375 -17.484375 C 15.203125 -18.660156 13.117188 -19.769531 11.484375 -20.8125 C 9.847656 -21.851562 8.453125 -23.160156 7.296875 -24.734375 C 6.148438 -26.316406 5.578125 -28.175781 5.578125 -30.3125 C 5.578125 -34.925781 7.503906 -38.597656 11.359375 -41.328125 C 15.210938 -44.054688 20.6875 -45.421875 27.78125 -45.421875 Z M 27.78125 -45.421875 "/></g></g></g><g fill="#ffffff" fill-opacity="1"><g transform="translate(204.699602, 250.17738)"><g><path d="M 37.75 -43.5625 C 38.8125 -43.5625 39.640625 -43.335938 40.234375 -42.890625 C 40.828125 -42.441406 41.125 -41.820312 41.125 -41.03125 C 41.125 -40.8125 41.066406 -40.421875 40.953125 -39.859375 C 40.222656 -37.378906 38.535156 -36.140625 35.890625 -36.140625 L 30.984375 -36.140625 L 24.65625 -15.28125 C 24.375 -14.4375 24.234375 -13.566406 24.234375 -12.671875 C 24.234375 -11.648438 24.515625 -10.941406 25.078125 -10.546875 C 25.640625 -10.160156 26.425781 -9.96875 27.4375 -9.96875 C 28.34375 -9.96875 29.46875 -10.078125 30.8125 -10.296875 C 31.488281 -10.472656 32.082031 -10.5625 32.59375 -10.5625 C 32.988281 -10.5625 33.285156 -10.429688 33.484375 -10.171875 C 33.679688 -9.921875 33.78125 -9.597656 33.78125 -9.203125 C 33.832031 -8.078125 33 -6.710938 31.28125 -5.109375 C 29.5625 -3.503906 27.238281 -2.125 24.3125 -0.96875 C 21.382812 0.1875 18.148438 0.765625 14.609375 0.765625 C 10.773438 0.765625 7.703125 -0.101562 5.390625 -1.84375 C 3.085938 -3.59375 1.9375 -5.988281 1.9375 -9.03125 C 1.9375 -10.4375 2.164062 -11.789062 2.625 -13.09375 L 8.015625 -29.8125 C 8.296875 -30.757812 8.4375 -31.519531 8.4375 -32.09375 C 8.4375 -33.21875 8.171875 -34.171875 7.640625 -34.953125 C 7.109375 -35.742188 6.363281 -36.5625 5.40625 -37.40625 C 4.5625 -38.195312 3.96875 -38.859375 3.625 -39.390625 C 3.289062 -39.921875 3.207031 -40.554688 3.375 -41.296875 C 3.601562 -42.023438 4.082031 -42.582031 4.8125 -42.96875 C 5.539062 -43.363281 6.695312 -43.5625 8.28125 -43.5625 L 13 -43.5625 L 18.328125 -48.890625 C 20.179688 -50.742188 21.878906 -52.035156 23.421875 -52.765625 C 24.972656 -53.503906 26.988281 -53.875 29.46875 -53.875 C 33.007812 -53.875 34.78125 -52.519531 34.78125 -49.8125 C 34.78125 -48.96875 34.671875 -48.179688 34.453125 -47.453125 L 33.265625 -43.5625 Z M 37.75 -43.5625 "/></g></g></g><g fill="#ffffff" fill-opacity="1"><g transform="translate(241.006038, 250.17738)"><g><path d="M 30.140625 -44.671875 C 36.617188 -44.671875 41.796875 -43.472656 45.671875 -41.078125 C 49.554688 -38.679688 51.5 -35.035156 51.5 -30.140625 C 51.5 -28.285156 51.164062 -26.175781 50.5 -23.8125 L 47.03125 -12.15625 C 46.976562 -11.9375 46.953125 -11.65625 46.953125 -11.3125 C 46.953125 -10.414062 47.316406 -9.96875 48.046875 -9.96875 C 48.722656 -9.96875 49.300781 -10.257812 49.78125 -10.84375 C 50.257812 -11.4375 50.582031 -11.734375 50.75 -11.734375 C 51.03125 -11.734375 51.269531 -11.535156 51.46875 -11.140625 C 51.664062 -10.753906 51.765625 -10.304688 51.765625 -9.796875 C 51.816406 -8.273438 51.238281 -6.722656 50.03125 -5.140625 C 48.820312 -3.566406 47.203125 -2.273438 45.171875 -1.265625 C 43.148438 -0.253906 40.925781 0.25 38.5 0.25 C 35.570312 0.25 33.066406 -0.28125 30.984375 -1.34375 C 28.898438 -2.414062 27.46875 -3.992188 26.6875 -6.078125 C 25 -4.054688 23 -2.492188 20.6875 -1.390625 C 18.375 -0.296875 15.894531 0.25 13.25 0.25 C 10.269531 0.25 7.765625 -0.320312 5.734375 -1.46875 C 3.710938 -2.625 2.207031 -4.117188 1.21875 -5.953125 C 0.238281 -7.785156 -0.25 -9.710938 -0.25 -11.734375 C -0.25 -12.640625 -0.164062 -13.515625 0 -14.359375 C 0.894531 -18.242188 2.847656 -21.171875 5.859375 -23.140625 C 8.878906 -25.109375 12.472656 -26.09375 16.640625 -26.09375 C 21.304688 -26.09375 25.890625 -25.359375 30.390625 -23.890625 L 32.515625 -29.46875 C 33.242188 -31.832031 33.609375 -33.660156 33.609375 -34.953125 C 33.546875 -36.304688 33.09375 -37.320312 32.25 -38 C 31.40625 -38.675781 30.113281 -39.015625 28.375 -39.015625 C 28.707031 -38.109375 28.875 -37.175781 28.875 -36.21875 C 28.875 -34.132812 28.085938 -32.332031 26.515625 -30.8125 C 24.941406 -29.300781 22.691406 -28.546875 19.765625 -28.546875 C 17.003906 -28.546875 14.847656 -29.148438 13.296875 -30.359375 C 11.753906 -31.566406 10.984375 -33.070312 10.984375 -34.875 C 10.984375 -37.6875 12.554688 -40.019531 15.703125 -41.875 C 18.859375 -43.738281 23.671875 -44.671875 30.140625 -44.671875 Z M 25.421875 -19.078125 C 23.835938 -19.078125 22.550781 -18.472656 21.5625 -17.265625 C 20.582031 -16.054688 20.09375 -14.75 20.09375 -13.34375 C 20.09375 -12.4375 20.300781 -11.703125 20.71875 -11.140625 C 21.144531 -10.578125 21.753906 -10.296875 22.546875 -10.296875 C 23.273438 -10.296875 24.078125 -10.59375 24.953125 -11.1875 C 25.828125 -11.78125 26.457031 -12.664062 26.84375 -13.84375 L 28.625 -18.828125 C 27.664062 -18.992188 26.597656 -19.078125 25.421875 -19.078125 Z M 25.421875 -19.078125 "/></g></g></g><g fill="#ffffff" fill-opacity="1"><g transform="translate(296.225609, 250.17738)"><g/></g></g><g fill="#ffffff" fill-opacity="1"><g transform="translate(313.112327, 250.17738)"><g><path d="M 10.046875 -17.0625 C 12.296875 -17.0625 14.191406 -16.300781 15.734375 -14.78125 C 17.285156 -13.257812 18.0625 -11.398438 18.0625 -9.203125 C 18.0625 -7.679688 17.65625 -6.1875 16.84375 -4.71875 C 16.03125 -3.257812 14.90625 -2.066406 13.46875 -1.140625 C 12.03125 -0.210938 10.410156 0.25 8.609375 0.25 C 6.410156 0.25 4.550781 -0.507812 3.03125 -2.03125 C 1.519531 -3.550781 0.734375 -5.40625 0.671875 -7.59375 C 0.671875 -9.113281 1.066406 -10.601562 1.859375 -12.0625 C 2.648438 -13.53125 3.757812 -14.726562 5.1875 -15.65625 C 6.625 -16.59375 8.242188 -17.0625 10.046875 -17.0625 Z M 10.046875 -17.0625 "/></g></g></g></svg>